<?xml version="1.0" encoding="UTF-8"?>
<svg fill="currentColor" viewBox="0 0 280 420" xmlns="http://www.w3.org/2000/svg">
  <path d="M118.3 40l-1.6.1-1.6.2-1.6.2-1.6.3-1.5.4-1.5.4-1.5.4-1.5.6-1.5.5-1.4.7-1.4.7-1.3.7-1.4.8-1.3.8-1.2 1-1.2.9-1.2 1-1.2 1-1 1-1.1 1.1-1 1.2-1 1.2-1 1.2-.9 1.2L86 59l-.8 1.4-.7 1.3-.7 1.4-.6 1.4-.6 1.5-.6 1.5-.4 1.5-.4 1.5-.4 1.5-.3 1.6-.2 1.6-.2 1.6v1.6L80 80v40h40v40H80v140H40V160H0v-40h40V76.7l.3-3.3.3-3.2.4-3.2.6-3.1.7-3.1.9-3 .9-3 1-3 1.2-3 1.3-2.8 1.3-2.8 1.5-2.7L52 38l1.7-2.6 1.7-2.5 2-2.5 1.9-2.4 2-2.2 2.1-2.3 2.3-2 2.3-2.1 2.3-2 2.5-1.9 2.5-1.7 2.6-1.7 2.6-1.6L83.3 9 86 7.6 89 6.3 91.8 5l3-1 3-1 3-.8 3-.7L107 1l3.2-.4 3.2-.3 3.3-.2L120 0v40h-1.7z"/>
  <path d="M206.6 120.3l3.2.3 3.2.5 3.1.5 3.1.7 3 .9 3 .9 3 1 3 1.2 2.8 1.3 2.8 1.3 2.7 1.5 2.6 1.6 2.6 1.7 2.5 1.8 2.5 1.8 2.4 2 2.2 2 2.3 2.1 2 2.3 2.1 2.3 2 2.3 1.9 2.5 1.7 2.5 1.7 2.6 1.6 2.6 1.5 2.8 1.3 2.7 1.3 2.9 1.2 2.9 1 3 1 3 .8 3 .7 3 .6 3.2.4 3.2.3 3.3.2 3.2.1 3.3v3.3l-.3 3.3-.3 3.2-.4 3.2-.6 3.1-.7 3.1-.8 3-1 3-1 3-1.2 3-1.3 2.8-1.3 2.8-1.5 2.7-1.6 2.6-1.7 2.6-1.8 2.5-1.8 2.5-2 2.4-2 2.3-2.1 2.2-2.3 2-2.3 2.1-2.3 2-2.5 1.9-2.5 1.7-2.6 1.7-2.6 1.6-2.8 1.5-2.7 1.3-2.9 1.3-2.9 1.2-3 1-3 1-3 .8-3 .7-3.2.6-3.2.4-3.2.3-3.3.2-3.3.1v-40h1.7l1.6-.1 1.6-.2 1.6-.2 1.6-.3 1.5-.4 1.5-.4 1.5-.4 1.5-.6 1.5-.5 1.4-.7 1.4-.7 1.3-.7 1.4-.8 1.3-.8 1.2-1 1.2-.8 1.2-1 1.2-1 1-1.1 1.1-1.1 1-1.2 1-1.2 1-1.2.9-1.2.8-1.3.8-1.4.7-1.3.7-1.4.7-1.4.5-1.5.6-1.5.4-1.5.4-1.5.4-1.5.3-1.6.2-1.6.2-1.6v-1.7l.1-1.6v-1.6l-.1-1.7-.2-1.6-.2-1.6-.3-1.6-.4-1.5-.4-1.5-.4-1.5-.6-1.5-.6-1.5-.6-1.4-.7-1.4-.7-1.3-.8-1.4-.8-1.3-1-1.2-.9-1.2-1-1.2-1-1.2-1-1-1.1-1.1-1.2-1-1.2-1-1.2-1-1.2-.9-1.3-.8-1.4-.8-1.3-.7-1.4-.7-1.4-.7-1.5-.5-1.5-.5-1.5-.5-1.5-.4-1.5-.4-1.6-.3-1.6-.2-1.6-.2h-1.7l-1.6-.1h-20v80h20v40h-20v140h-40V120h63.3l3.3.3z"/>
</svg>
